<?xml version="1.0" encoding="utf-8"?>
<!-- Generator: Adobe Illustrator 18.1.1, SVG Export Plug-In . SVG Version: 6.00 Build 0)  -->
<svg version="1.1" id="レイヤー_1" xmlns="http://www.w3.org/2000/svg" xmlns:xlink="http://www.w3.org/1999/xlink" x="0px"
	 y="0px" viewBox="0 0 256 256" style="enable-background:new 0 0 256 256;" xml:space="preserve">
<style type="text/css">
	.st0{fill-rule:evenodd;clip-rule:evenodd;fill:#69D7EE;}
	.st1{fill-rule:evenodd;clip-rule:evenodd;fill:#FFFFFF;}
	.st2{fill:#111111;}
	.st3{fill-rule:evenodd;clip-rule:evenodd;}
	.st4{fill-rule:evenodd;clip-rule:evenodd;fill:#111111;}
</style>
<polygon class="st0" points="153.4,256 135,138.6 203.1,256 256,256 256,246.5 134.8,137.2 134.7,136.6 256,195.4 256,153.3 
	134.6,136.2 134.6,135.9 256,118.7 256,76.6 134.5,135.5 134.5,135.1 256,25.5 256,0 212.4,0 134.4,134.5 134.1,132.5 154.9,0 
	112.1,0 132.9,132.5 132.6,134.5 54.6,0 0,0 0,15.5 132.5,135.1 132.5,135.5 0,71.2 0,117.1 132.4,135.9 132.4,136.2 0,154.9 
	0,200.8 132.3,136.6 132.2,137.2 0.5,256 63.9,256 132,138.6 113.6,256 "/>
<path class="st1" d="M215.1,256c2-4.7,4.5-10.9,7.4-18.4c7.1-18.8,10-41,2.1-51.7l-20.6-22.3l-85.5-18.4
	c-19.8-0.3-28.2,9.6-37.1,21.8c-9,12.2,11.9,4.1,11.9,4.1s6.3,17.9,12.6,33.6c0,0,1.6,31.2,4.1,51.2H215.1z"/>
<path d="M112.3,256c-2.5-19.7-4.1-51-4.1-51.4c0-0.3-0.1-0.5-0.2-0.8c-6.2-15.5-12.5-33.3-12.6-33.5c-0.2-0.6-0.7-1.2-1.3-1.4
	c-0.6-0.3-1.3-0.3-1.9-0.1c-4.1,1.6-8.8,2.7-10.6,2.5c0.2-0.5,0.6-1.4,1.6-2.8c9-12.3,16.8-21,34.8-20.8l84.5,18.1l20,21.6
	c7.3,10.1,4.1,32-2.5,49.3c-3,8-5.7,14.5-7.8,19.3h5.4c2-4.6,4.4-10.5,7-17.5c3.8-10,6.2-20.6,6.8-29.6c0.7-10.6-1-19-5.1-24.5
	c-0.1-0.1-0.1-0.1-0.2-0.2l-20.6-22.3c-0.3-0.4-0.8-0.6-1.3-0.7l-85.5-18.4c-0.2,0-0.3-0.1-0.5-0.1c-20.6-0.3-29.6,9.7-39.2,22.9
	c-1.2,1.6-4.2,5.8-1.9,8.8c2.4,3.2,9.2,1.7,14.2,0c1.9,5.3,6.8,18.8,11.6,30.9c0.2,4,1.7,31.9,4,50.7H112.3z"/>
<g>
	<path class="st1" d="M126.7,153.2c-9-35.6-40.2-104.4-40.2-104.4s14.7-17.7,0-19.5c-15-1.8-23.4,12.6-22.5,21.9
		c0.9,9.3,18.2,54.8,24,73.2s5.4,18.9,5.4,18.9"/>
	<path class="st2" d="M126.7,154.7c-0.7,0-1.3-0.5-1.5-1.1c-8.9-35-39.8-103.5-40.1-104.1c-0.2-0.5-0.2-1.1,0.2-1.6
		c2.2-2.6,7.5-10.3,5.9-14.3c-0.6-1.5-2.2-2.4-4.9-2.7c-7.1-0.9-11.8,2.2-14.6,4.9C67.5,39.7,65,45.9,65.5,51
		c0.6,5.9,8.2,27.7,15,46.9c3.6,10.1,6.9,19.7,8.9,26c6.1,19.3,5.8,19.7,5,20.4c-0.6,0.6-1.5,0.6-2.1,0c-0.3-0.3-0.5-0.7-0.4-1.2
		c-0.1-0.5-0.6-3.4-5.3-18.4c-2-6.3-5.4-15.8-8.9-25.9c-7.1-20.3-14.5-41.3-15.1-47.6c-0.6-6,2.3-13.1,7.1-17.8
		c3.2-3.2,8.8-6.7,17.1-5.7c3.9,0.5,6.3,2,7.4,4.6c2.2,5.6-3.7,14-5.8,16.6c3.6,8,31.5,70.7,39.9,103.8c0.2,0.8-0.3,1.6-1.1,1.8
		C127,154.6,126.9,154.7,126.7,154.7z"/>
</g>
<g>
	<path class="st3" d="M105.6,106.2l-1.9-9.7l3.6-17.9L95.5,79l13.1-16.5l-14.3,3l16.3-24.8c8.5-12.9,17.1-20.5,40.5-29.5
		s44.2-5,52.4-0.6s10.6,7.6,16,15.6c9.6,0.9,13.5,3.8,21.5,11.8c7.9,8,14.4,29.3,10.5,47.3c-3.9,18-16.5,44.5-16.5,44.5l-16.9,4.6
		L105.6,106.2z"/>
	<g>
		<path class="st1" d="M169.7,46.5c-23.6-2.9-42.6,7.4-49.2,22.4c-12.4,14.5-12.2,28.1-12.2,28.1s-0.7,32.7-0.6,42.4
			c0.1,9.7,6.3,17,16.6,25.6c10.3,8.6,16.5,13.3,19.5,14.9c2.9,1.7,19.4,3.1,19.4,3.1s27.3-5.4,32.7-8.6
			c5.4-3.3,14.8-10.7,18.5-15.5c3.8-4.8,7.1-13.7,7.1-13.7s9.3-1.1,15.5-8.4c6.1-7.3,0.3-16.2-7.3-13.8l-8.5,6.4l1.4-17.3l-8-27
			C214.5,85.2,208.8,52.3,169.7,46.5z"/>
		<path d="M163.2,185.6c-0.1,0-0.1,0-0.2,0c-4-0.4-17.2-1.6-20.4-3.4c-3.4-1.9-10.2-7.2-19.9-15.2c-10.4-8.7-17.3-16.7-17.5-27.5
			c-0.1-9.6,0.6-42.1,0.6-42.5c0-0.5,0-14.5,12.6-29.4c6.7-14.6,23.7-24,43.6-24c2.7,0,5.4,0.2,8.1,0.5c21.1,3.1,32.7,14,38.8,22.6
			c6.1,8.7,7.8,16.8,8.1,18l8,26.9c0.1,0.3,0.1,0.6,0.1,0.9l-0.9,11.8l4.1-3.1c0.2-0.2,0.5-0.3,0.8-0.4c1.1-0.3,2.2-0.5,3.3-0.5
			c3.8,0,7.2,2.2,8.9,5.7c1.9,4,1.1,8.8-2.2,12.6c-5.2,6.2-12.4,8.4-15.6,9c-1.1,2.8-3.8,9.1-6.9,13c-4.1,5.2-14,12.9-19.2,16.1
			c-5.6,3.4-30.7,8.4-33.5,8.9C163.5,185.6,163.3,185.6,163.2,185.6z M161.9,48.6c-18,0-33.4,8.4-39.1,21.4
			c-0.1,0.2-0.2,0.4-0.4,0.6c-11.6,13.6-11.6,26.4-11.6,26.5c0,0.4-0.7,32.8-0.6,42.4c0.1,8.9,6.1,15.7,15.7,23.7
			c12.5,10.4,17.3,13.7,19.1,14.7c1.5,0.8,10.4,2.1,18,2.8c10.8-2.1,27.9-6,31.6-8.2c5.5-3.3,14.5-10.5,17.9-14.9
			c3.5-4.4,6.6-12.9,6.7-13c0.3-0.9,1.1-1.5,2.1-1.6c0.1,0,8.4-1.1,13.8-7.5c2-2.3,2.5-5.1,1.5-7.3c-1-2.2-3.3-3.3-5.8-2.7l-8.1,6.2
			c-0.8,0.6-1.8,0.7-2.7,0.2c-0.9-0.5-1.4-1.4-1.3-2.4l1.4-16.9L212.1,86c0-0.1-0.1-0.2-0.1-0.3c-0.2-1.3-5.9-31.2-42.6-36.6
			C166.9,48.7,164.4,48.6,161.9,48.6z"/>
	</g>
	<g>
		<path class="st1" d="M147.4,111.5c-11.1-4.3-22.6-6.2-27.4-4.1c-4.8,2-6.9,12.2,2.8,15.3c9.7,3.1,17.6,2.3,21.2,2.1
			C147.6,124.5,158.6,115.8,147.4,111.5z"/>
		<path d="M138,127C138,127,138,127,138,127c-5.5,0-10.7-0.8-15.8-2.4c-5-1.6-8-5.1-8.2-9.7c-0.2-4,2-8,5.2-9.3c1.5-0.7,3.6-1,6.1-1
			c6,0,14.5,1.9,22.8,5.1c6,2.3,6.4,6,6.1,7.9c-0.7,4.6-6.8,9-10.1,9.2l-1,0.1C141.9,126.9,140.1,127,138,127z M125.3,108.5
			c-2.5,0-3.8,0.4-4.5,0.7c-1.7,0.7-2.9,3.1-2.8,5.5c0.1,1.6,0.9,4.6,5.4,6.1c4.7,1.5,9.4,2.2,14.5,2.2h0c2,0,3.6-0.1,4.9-0.2l1-0.1
			c1.4-0.1,5.9-3.1,6.3-5.8c0.2-1.4-1-2.6-3.6-3.6C138.9,110.3,130.9,108.5,125.3,108.5z"/>
	</g>
	<g>
		<path class="st1" d="M175.5,115c8.2-0.9,23-0.4,30.6,2c7.6,2.4,6.4,12.2-0.6,16.7c-7,4.5-19.2,4.6-25.9,2.1
			c-6.8-2.5-10.9-7.1-11.4-11.2C167.6,120.6,167.3,115.9,175.5,115z"/>
		<path d="M190.1,139.4c-4.2,0-8.2-0.6-11.3-1.8c-7.1-2.6-12-7.6-12.7-12.8c-0.3-2.3-0.7-5.7,1.4-8.4c1.5-1.9,4.1-3.1,7.8-3.5
			c2.6-0.3,5.8-0.4,9.2-0.4c6.9,0,16.3,0.7,22.2,2.5c3.6,1.2,6,3.9,6.5,7.5c0.6,4.7-2,9.8-6.6,12.8
			C201,138.9,193.9,139.4,190.1,139.4z M184.5,116.6c-3.3,0-6.3,0.1-8.8,0.4c-2.5,0.3-4.2,1-5.1,2c-1,1.3-0.8,3.3-0.6,5.4
			c0.4,3,3.7,7.2,10.1,9.5c2.6,1,6.2,1.5,9.9,1.5c5.7,0,10.9-1.2,14.3-3.4c3.3-2.1,5.2-5.7,4.8-8.9c-0.2-1.5-1-3.4-3.7-4.2
			C200.9,117.4,192.9,116.6,184.5,116.6z"/>
	</g>
	<path class="st3" d="M218.2,29.7c5.1-20.4-9.2-25-18.9-24.1c0,0,16.1,5,14.7,17.7C214.1,23.3,213.1,50.1,218.2,29.7z"/>
	<path d="M188.5,129c0,0-0.1,0-0.1,0l-12.1-1.5c-0.5-0.1-0.9-0.6-0.9-1.1c0.1-0.5,0.6-0.9,1.1-0.9l12.1,1.5c0.5,0.1,0.9,0.6,0.9,1.1
		C189.4,128.7,188.9,129,188.5,129z"/>
	<g>
		<path class="st3" d="M151.8,219.8c0-0.4,0-1,0-1.1c-0.3-0.1-1.1-0.5-1.4-0.6c-0.6-0.2-1.2-0.4-1.8-0.6c-0.6-0.2-0.7,0-0.7,0.1
			c0,0,0.6,1,0.8,1.1l0.5,0.1L151.8,219.8z M151.5,204.8c-0.3-0.2-0.7-0.4-1.3-0.6c-0.1,0-0.6-0.2-0.6,0c0,0,0.6,1.7,1,2.4
			c0.3,0.1,1.6,0.6,1.9,0.6c0-0.3,0-1.6,0-2L151.5,204.8z M161.9,212.4c0.1-0.7,0.1-1.1,0.4-2.2c-0.1-0.1-0.3-0.2-0.4-0.2l-1.3-0.3
			c-0.2-0.1-1.2-0.6-1.4-0.7c0,0.2-0.1,1.4-0.1,1.7l2.6,1.6L161.9,212.4z M161.4,224.6c0.5-0.5,0.7-0.7,0.7-1.3c0-0.2,0-0.3,0.1-0.7
			c-0.2,0-0.6,0-1.4-0.2c-0.5-0.1-0.8-0.3-1.6-0.7c-0.2-0.1-0.2-0.1-0.4-0.1c0,0.5-0.1,1.3-0.1,1.9
			C158.8,223.4,160.6,224.3,161.4,224.6z M162.6,206.6c1-1.9,1.8-1.7,2.7-1.5c1.4,0.4,1.4,1.3,1.4,1.4c0,0.3-0.2,0.6-0.3,0.7
			c-0.1,0.1-0.7,0.6-0.7,0.6l0.2,2.6c0,0.2,0,0.4,0,0.6c-0.2,4-0.9,4.8-1.4,5.4c-0.5,0.5-1.9,0.9-2.7,0.7c-0.4-0.1-2.4-1.2-2.8-1.4
			c-0.1,0.6-0.1,0.7-0.1,1.3c0.3,0.1,1.4,0.8,1.7,1c0.6,0.4,1.6,0.9,2.2,1.3c1-1.1,2.2-1.3,2.8-1.2c0.5,0.1,0.9,0.9,0.9,1.4
			c0,0.2-0.1,0.2-0.5,0.7c0,0.1-0.2,0.3-0.2,0.8c0,0.2,0.2,1.1,0.2,1.3c0.1,0.3,0.1,0.6,0.1,1c-0.2,5.4-3.8,6.1-5.2,5.7
			c-0.2-0.1-1.8-1-2.5-1.3c-0.1,0.6-0.1,1.6-0.4,2.3c-0.4,1.2-0.9,1.2-2.3,1.4c-0.7,0.1-1.8-0.1-1.8-0.1c-0.3-0.1-1.4-0.6-2.1-1.5
			c-0.3-0.5-0.6-1.3-0.6-1.9c0-0.3,0-2.2-0.1-2.6l-1.4-0.4c-0.4-0.1-1.8-0.3-2.2-0.4l-2,0c0,0-1.4-0.4-1.5-0.4
			c-0.2-0.1-0.9-0.8-1-0.9c-0.6-1-0.7-1.2-0.7-2c0-0.1,0.1-0.8,0.2-1.2c-0.6-1.3-0.6-1.3-0.8-2.4c-0.1-0.3-0.1-0.6-0.1-1
			c0-0.6,0.7-1.9,1.7-2.6c0.3-0.3,1.6-0.8,1.9-0.8c1.7-0.3,1.8-0.3,3.6,0.1c0.1,0,0.5,0.1,0.6,0.1l2.5,0.9l0.3,0.1l0-0.3
			c0-0.1,0-0.5-0.1-0.8c-1.8-0.7-2.7-1-3.1-1.1c-0.4-0.1-0.6-0.1-0.8-0.2l-2-0.3c-0.1,0-1.9-0.5-1.8-2.4c0,0,0-0.6,0.3-1.2
			c-0.6-1.1-1.1-2.7-1.1-3.8c0.1-1.9,0.9-2.8,1.9-3.5c0.5-0.3,2.9-1.5,5.7-0.8c0.7,0.2,1.3,0.5,2.4,1c0.1-0.1,0.8-0.7,1-0.7
			c0.6-0.3,1.7-0.4,3-0.1c0.2,0,1.2,0.3,1.7,0.8c0.4,0.4,1,1.3,1,2c0,0.6-0.1,0.7-0.2,0.9c-0.1,0.1-0.6,0.7-0.8,0.8l2.5,1.7
			L162.6,206.6z"/>
		<path class="st3" d="M121.5,207.1c0.2,0,1-0.2,1.2-0.3c0.3-0.1,0.4,0,1.5,0.1c0.1-0.4,0.2-1.1,0.2-2.2l0.1-1.6
			c-0.5-0.3-0.7-0.4-1.6-0.7l-0.4,1.5L121.5,207.1z M130.8,210.8c0.4,0.2,2,1.1,2.2,1.1c0.1-2.2,0.7-3.1,1.1-3.9l-3.2-1.6
			c0,0.3-0.1,0.6-0.1,0.9L130.8,210.8z M130.4,218.3c0,0.3,0,0.4,0.3,0.5c0.1,0,1.6,0.2,2.7-0.1c0-0.1-0.2-1.3-0.2-1.4
			c-1.7-0.1-1.9-0.1-2.7-0.3L130.4,218.3z M117.9,201.4c-0.2,0-0.7,0.1-1.2,0.3c-0.4,0.1-0.8,0-1,0c-1.6-0.4-1.8-1.9-1.7-3.2
			c0.1-2,1.4-3.1,2.2-3.5c1.7-1.1,3.5-0.9,5.8-0.2c1.3,0.4,1.8,0.6,2.9,1.1c0.3-1.1,0.6-2,1.6-2.6c0.9-0.6,2.7-0.4,3.2-0.2
			c0.1,0,3.4,0.9,3.3,3.6c0,1-0.3,1.1-1.7,1.7c-0.1,0.1-0.3,0.2-0.3,0.6c0.1,0.1,0.1,0.1,0.3,0.2c0.7,0.4,1.6,1,3.1,2.1
			c0.8,0.6,2.1,1.5,2.8,2.1c0.2,0.1,0.9,0.9,1.1,0.9c0.1,0,0.9,0.1,1,0.2c0.8,0.2,0.9,1.1,0.9,1.5c0,1-0.6,1.6-0.9,1.8
			c-0.2,0.1-1.4,0.5-1.4,0.6l-0.1,0.9c-0.1,0.4-0.4,1.1-0.4,1.1c0,0,0.3,2.3,0.4,2.7l1.1,6.1c0.1,0.4,0.2,0.8,0.3,1.1
			c0.4,0.9,0.4,1.8,0.4,2.3c0,1-0.4,1.7-1.2,2.2c-0.9,0.7-1.5,0.5-2,0.4c-1.2-0.3-2.1-1.4-2.6-3.2c-0.3,0.2-0.7,0.4-1.1,0.6l-2.3,1
			c-0.4,0.2-2.3,0.8-4.1,0.3c-0.4-0.1-2-0.9-2.4-2.5c-0.3-1-0.4-2.3-0.3-3.3l0.2-3.7l0-0.1c-0.4-0.2-0.6-0.3-1-0.4
			c-0.2,0-0.5-0.1-0.8-0.1c-0.2,0-0.7,0-0.9,0c-0.1,0-0.4-0.2-0.7-0.3c0,0.3,0,0.5-0.2,1.4l-0.3,2.7c-0.3,2.4-2.3,2.8-3.4,2.5
			c-0.5-0.2-1-0.5-1.4-0.8c-0.6-0.6-1.5-1.6-1.4-4.4c0-0.9,0.4-3.5,0.6-4.2l0.9-2.7l1.2-3.2L117.9,201.4z"/>
	</g>
	<path class="st4" d="M169.5,44.4c-9.4-5.3-24.7,11-27.4,18.2C155.6,50.9,161.2,48.5,169.5,44.4z"/>
	<path class="st4" d="M151.2,45.1c-9.3-5.3-28.6,11.7-31.4,19C140.4,49.3,143.2,50.2,151.2,45.1z"/>
	<path class="st4" d="M154.7,45.1c-10-3.9-26.3,15.7-28,23.5C144.9,50.7,147.8,51.2,154.7,45.1z"/>
	<path class="st4" d="M177.9,46.5c7.5,7.5,10.2,25.6,10.2,25.6s3.2-16.9-1.9-23C181.3,43,170.4,39,177.9,46.5z"/>
	<path class="st4" d="M189,52.5c5.1,7.4,5.4,20.3,5.4,20.3s4.8-8.8,1-16.4S183.9,45.1,189,52.5z"/>
	<path class="st2" d="M142.1,171.3c-0.6,0-1.1-0.3-1.4-0.9l-1.3-2.8l-5.8-1.3c-0.5-0.1-0.9-0.5-1.1-0.9c-0.2-0.5-0.1-1,0.2-1.4
		l3-4.1c0.5-0.7,1.4-0.8,2.1-0.3c0.7,0.5,0.8,1.4,0.3,2.1l-1.7,2.2l4.2,0.9c0.5,0.1,0.8,0.4,1,0.8l1.6,3.4c0.4,0.7,0,1.6-0.7,2
		C142.5,171.3,142.3,171.3,142.1,171.3z"/>
	<path class="st4" d="M122.3,88.9c4.5,10,15.6,15.3,25.2,13.9c10.2-1.4-2-3.8-2-3.8s-13.9-5.4-23.7-13.9
		C122.3,86.2,122.3,88.9,122.3,88.9z"/>
	<path class="st4" d="M203.9,105.1c-2.3,0.7-17,8.4-25.7,6.7c-8.6-1.7-4.2-4.4-1.7-5.1c2.4-0.7,15.6-1.8,30.3-5.6
		C209.4,100.7,206.2,104.3,203.9,105.1z"/>
	<path class="st2" d="M164.2,127.6c-0.1,0-0.2,0-0.2,0l-16.8-1.5c-1.4-0.1-2.4-1.3-2.3-2.7c0.1-1.4,1.3-2.4,2.7-2.3l16.8,1.5
		c1.4,0.1,2.4,1.3,2.3,2.7C166.5,126.6,165.4,127.6,164.2,127.6z"/>
	<polygon class="st3" points="217,125 111.9,107.7 110.7,117 215.8,134.3 	"/>
	<path d="M158.8,142.7c-0.1,0-0.1,0-0.2,0c-6.7-0.6-12-1.7-14.4-2.4c-1.6-0.5-2.9-1.5-3.5-2.8c-0.7-1.4-0.7-3-0.1-4.7
		c0.9-2.4,6.7-10.1,7.9-11.6c0.7-0.9,1.9-1.1,2.8-0.4c0.9,0.7,1.1,1.9,0.4,2.8c-2.7,3.6-6.8,9.3-7.3,10.7c-0.2,0.6-0.3,1.1-0.1,1.5
		c0.2,0.4,0.7,0.6,1.1,0.8c1.8,0.5,6.8,1.6,13.7,2.3c1.1,0.1,1.9,1.1,1.8,2.2C160.7,141.9,159.8,142.7,158.8,142.7z"/>
	<path d="M169.4,134.6c-0.9,0-1.7-0.6-1.9-1.4l-2.4-8.3c-0.3-1.1,0.3-2.2,1.4-2.5c1.1-0.3,2.2,0.3,2.5,1.4l2.4,8.3
		c0.3,1.1-0.3,2.2-1.4,2.5C169.8,134.6,169.6,134.6,169.4,134.6z"/>
</g>
<g>
	<path class="st1" d="M139.9,173.4c0.7,1.1,1.6,1.8,2.6,1.9c3.1,0.2,6-5.4,6.5-12.4c0.5-7.1-1.5-13-4.6-13.2c-0.6,0-1.1,0.1-1.7,0.5
		l-11,2.4c0,0-65.7-33.4-76.8-38.6c-10.2-0.6-19.8,18.1-21.3,41.9c-1.6,23.6,5.4,43.2,15.5,44c10.5-3.7,81.4-31.3,81.4-31.3
		L139.9,173.4z"/>
	<path d="M49.2,201.8c0,0-0.1,0-0.1,0c-11.4-0.8-19-21.1-17.4-46.1c1.7-25.4,11.8-44.4,23.4-43.7c0.3,0,0.5,0.1,0.7,0.2
		c10.4,4.9,69.4,34.9,76.2,38.3l10-2.2c0.8-0.4,1.7-0.6,2.6-0.6c0.9,0.1,2.2,0.4,3.5,1.9c2.3,2.6,3.4,7.8,2.9,13.5
		c-0.5,7.1-3.6,14.3-8.4,14.3c0,0,0,0,0,0c-0.1,0-0.2,0-0.3,0c-1-0.1-2.5-0.5-3.8-2.3l-8.1-4.3c-8.1,3.1-70.8,27.5-80.6,31
		C49.7,201.7,49.5,201.8,49.2,201.8z M54.5,115.9c-9.7,0-17.5,20.7-18.8,40c-1.6,23.9,5.5,40.7,13.3,41.8
		c11.7-4.2,80.2-30.8,80.9-31.1c0.5-0.2,1.1-0.2,1.7,0.1l9.3,4.9c0.3,0.2,0.6,0.4,0.7,0.7c0.4,0.6,0.8,0.9,1.1,1h0
		c1.2,0,3.9-3.7,4.4-10.6c0.4-5.2-0.7-9.1-2-10.6c-0.2-0.2-0.5-0.5-0.7-0.5c-0.2,0-0.4,0.1-0.5,0.2c-0.2,0.1-0.4,0.2-0.6,0.3
		l-11,2.4c-0.5,0.1-0.9,0-1.3-0.2C130.3,154,66.5,121.6,54.5,115.9C54.5,115.9,54.5,115.9,54.5,115.9z"/>
</g>
<path class="st2" d="M47.1,201.4c-0.5,0-1.1-0.3-1.3-0.8c-0.4-0.7-0.1-1.6,0.6-2c7-3.6,12.2-11.4,15.1-22.4
	c5-19.3,1.7-45.7-4.4-54.7c-0.5-0.7-0.3-1.6,0.4-2.1c0.7-0.5,1.6-0.3,2.1,0.4c6.5,9.7,10,36.8,4.8,57.1
	c-3.1,11.9-8.8,20.3-16.6,24.3C47.6,201.4,47.4,201.4,47.1,201.4z"/>
<path class="st2" d="M74.5,51.2c-0.6,0-1.2-0.4-1.4-1.1c-0.6-2-0.3-4,0.7-5.8c1.1-1.8,2.9-3.3,5.5-4.5c-1-0.6-1.8-1.3-2.1-2.3
	c-0.1-0.7-0.1-2,1.9-3.2c2.9-1.7,7.3-1.7,10.1,0c2,1.2,3,3.2,2.9,5.5c0,0.8-0.8,1.5-1.6,1.4c-0.8,0-1.5-0.8-1.4-1.6
	c0.1-1.2-0.4-2.2-1.5-2.8c-1.8-1.1-5.1-1.1-7.1,0c-0.1,0-0.1,0.1-0.2,0.1c0.7,0.5,2.5,1.1,4.1,1.3c0.7,0.1,1.3,0.7,1.3,1.4
	c0,0.7-0.5,1.4-1.2,1.5c-5.4,1.2-7.5,3.1-8.3,4.6c-0.8,1.4-0.7,2.6-0.4,3.4c0.2,0.8-0.2,1.6-1,1.9C74.8,51.1,74.7,51.2,74.5,51.2z"
	/>
<path class="st2" d="M166.3,182.6c-0.2,0-0.4,0-0.6-0.1c-0.8-0.3-1.1-1.2-0.7-2c4.2-9.2,12.8-16.2,21-17.2c5.6-0.6,10.4,1.5,14,6.1
	c0.5,0.7,0.4,1.6-0.3,2.1c-0.7,0.5-1.6,0.4-2.1-0.3c-2.9-3.7-6.8-5.4-11.3-4.9c-7.2,0.8-14.8,7.2-18.6,15.4
	C167.4,182.2,166.9,182.6,166.3,182.6z"/>
<g>
	<path class="st1" d="M165,200.9l-18,1.8l-8.6-27.9c0,0,8.6-14.4,0-21.1c-8.5-6.8-14.4-3.1-14.4-3.1l5.4,9c0,0-9.4,7.6-8.1,17.1
		c1.3,9.4,4.5,34.2,9.4,42.8s7.2,8.1,16.2,7.7c9-0.5,24.3-3.2,24.3-3.2"/>
	<path class="st2" d="M141.9,228.7c-5.3,0-8.2-1.3-12.4-8.6c-4.7-8.1-7.7-29.4-9.3-40.8l-0.3-2.5c-1.2-8.4,5.1-15.2,7.7-17.6
		l-4.8-7.9c-0.4-0.7-0.2-1.6,0.5-2c0.3-0.2,6.9-4.1,16.1,3.3c8.5,6.7,2.3,19.6,0.7,22.5l8,26.1l16.8-1.7c0.8-0.1,1.6,0.5,1.6,1.3
		c0.1,0.8-0.5,1.6-1.3,1.6l-18,1.8c-0.7,0.1-1.4-0.4-1.6-1.1l-8.6-27.9c-0.1-0.4-0.1-0.8,0.1-1.2c0.1-0.1,7.8-13.4,0.4-19.2
		c-5.3-4.1-9.3-4-11.3-3.6l4.5,7.5c0.4,0.6,0.2,1.5-0.3,1.9c-0.1,0.1-8.8,7.2-7.6,15.7l0.3,2.5c1.5,10.4,4.5,32.1,8.9,39.8
		c4.3,7.4,5.8,7.4,13.9,7l1,0c8.8-0.4,24-3.1,24.1-3.1c0.8-0.1,1.6,0.4,1.7,1.2s-0.4,1.6-1.2,1.7c-0.6,0.1-15.5,2.7-24.5,3.2l-1,0
		C144.5,228.6,143.1,228.7,141.9,228.7z"/>
</g>
<g>
	<path class="st1" d="M216.3,223.4c-0.3,0.8-33.4,20.8-34.2,20.7c-0.8-0.1-18.9-46.8-18.9-46.8s17.6-6.8,27.5-10.3
		c9.9-3.6,22.5-0.4,22.5-0.4"/>
	<path class="st2" d="M182.1,245.6c0,0-0.1,0-0.1,0c-1.3-0.1-1.4-0.1-11-24.4c-4.6-11.6-9.1-23.3-9.2-23.4c-0.1-0.4-0.1-0.8,0-1.1
		c0.2-0.4,0.5-0.6,0.8-0.8c0.2-0.1,17.7-6.8,27.5-10.4c10.2-3.7,22.8-0.6,23.4-0.5c0.8,0.2,1.3,1,1.1,1.8c-0.2,0.8-1,1.3-1.8,1.1
		c-0.1,0-12.3-3-21.6,0.4c-8.2,3-21.7,8.1-26,9.8c6.2,16.1,15.2,38.7,17.6,44c5.7-3.1,30.5-18.1,32.4-19.7c0.4-0.5,1.1-0.7,1.7-0.4
		c0.8,0.3,1.1,1.2,0.8,2c-0.2,0.5-0.4,1-17.5,11.4C184.1,245,182.7,245.6,182.1,245.6z"/>
</g>
</svg>
